<?xml version="1.0" standalone="no"?><!DOCTYPE svg PUBLIC "-//W3C//DTD SVG 1.1//EN" "http://www.w3.org/Graphics/SVG/1.1/DTD/svg11.dtd"><svg class="icon" width="32px" height="32.00px" viewBox="0 0 1024 1024" version="1.1" xmlns="http://www.w3.org/2000/svg"><path d="M512.810127 512m-362.936709 0a362.936709 362.936709 0 1 0 725.873417 0 362.936709 362.936709 0 1 0-725.873417 0Z" fill="#A3DAFF" /><path d="M605.164557 673.782278l-86.926582-49.09367c-5.508861-3.078481-12.151899-3.321519-17.741772-0.567089l-89.762026 43.746835c-14.258228 6.967089-30.217722-5.427848-27.13924-20.982278L403.443038 549.103797c1.21519-6.156962-0.648101-12.556962-5.022785-17.09367l-69.346835-71.777216c-11.017722-11.422785-4.131646-30.460759 11.58481-32.243038l99.159494-11.422784c6.237975-0.729114 11.746835-4.455696 14.663291-10.04557L501.387342 318.379747c7.453165-14.01519 27.706329-13.367089 34.268354 1.053164l41.478481 90.81519c2.592405 5.751899 7.858228 9.802532 14.096203 10.855696l98.349367 17.336709c15.635443 2.75443 21.306329 22.197468 9.640506 32.89114l-73.559494 67.483544c-4.617722 4.212658-6.886076 10.531646-5.994936 16.76962l13.934177 98.835443c2.106329 15.716456-14.663291 27.139241-28.435443 19.362025z" fill="#FFFFFF" /><path d="M587.341772 637.974684l-69.832911-39.453165c-4.374684-2.511392-9.721519-2.673418-14.258228-0.405063l-72.020253 35.159493c-11.422785 5.589873-24.303797-4.374684-21.792405-16.850633l15.878481-78.582278c0.972152-4.941772-0.486076-10.04557-3.969621-13.691139l-55.655696-57.681013c-8.83038-9.15443-3.321519-24.465823 9.316456-25.924051l79.635443-9.15443c5.022785-0.567089 9.397468-3.564557 11.827848-8.020253l37.589873-70.805063c5.994937-11.260759 22.197468-10.774684 27.463292 0.810126l33.296202 72.911393c2.106329 4.617722 6.318987 7.858228 11.26076 8.749367l78.906329 13.934177c12.556962 2.187342 17.093671 17.822785 7.696202 26.410126l-59.058228 54.197469c-3.726582 3.402532-5.508861 8.425316-4.779746 13.448101l11.179746 79.392405c1.782278 12.637975-11.665823 21.792405-22.683544 15.554431z" fill="#FFC248" /><path d="M625.012658 457.073418c-43.665823-10.126582-74.693671 4.617722-93.326582 19.118987-3.240506 2.511392-7.777215-0.729114-6.4-4.617721 16.202532-44.070886-1.863291-81.336709-10.04557-94.784811-1.620253-2.673418-5.427848-2.592405-7.048101 0-23.331646 38.643038-18.632911 72.911392-10.450633 95.108861 1.458228 3.888608-3.159494 7.129114-6.4 4.617722-36.941772-29.083544-77.934177-23.412658-93.326582-19.767089-2.997468 0.729114-4.131646 4.374684-2.106329 6.643038 29.650633 34.187342 63.756962 40.263291 87.331645 39.291139 4.131646-0.162025 5.913924 5.18481 2.43038 7.534178C446.379747 536.38481 439.088608 577.21519 437.711392 593.012658c-0.243038 3.078481 2.835443 5.346835 5.670886 4.131646 41.802532-17.660759 58.086076-48.364557 64.405064-71.048101 1.134177-4.050633 6.724051-4.050633 7.858228 0 12.718987 45.367089 49.336709 64.891139 63.918987 71.048101 2.835443 1.21519 5.913924-1.053165 5.670886-4.131646-3.807595-44.8-27.625316-69.751899-47.149367-82.875949-3.402532-2.268354-1.701266-7.61519 2.43038-7.453165 46.663291 1.539241 76.313924-26.977215 86.602531-38.886076 2.106329-2.43038 0.891139-6.075949-2.106329-6.72405z" fill="#FFFF9C" /></svg>