<?xml version="1.0" standalone="no"?><!DOCTYPE svg PUBLIC "-//W3C//DTD SVG 1.1//EN" "http://www.w3.org/Graphics/SVG/1.1/DTD/svg11.dtd"><svg class="icon" width="32px" height="32.00px" viewBox="0 0 1024 1024" version="1.1" xmlns="http://www.w3.org/2000/svg"><path d="M512 512m-416 0a416 416 0 1 0 832 0 416 416 0 1 0-832 0Z" fill="#AEECFF" /><path d="M577.152 780.16c0 12.288-10.176 22.4-22.4 22.4H279.424a22.464 22.464 0 0 1-22.4-22.4v-531.2c0-12.288 10.048-22.4 22.4-22.4h275.264c12.224 0 22.4 10.112 22.4 22.4v531.2z" fill="#FFFFFF" /><path d="M267.264 291.776h300.864v445.376H267.264z" fill="#000333" /><path d="M272.384 296.704h290.624v435.52H272.384z" fill="#535353" /><path d="M386.56 263.808m-6.4 0a6.4 6.4 0 1 0 12.8 0 6.4 6.4 0 1 0-12.8 0Z" fill="#000333" /><path d="M433.344 240.896m-4.8 0a4.8 4.8 0 1 0 9.6 0 4.8 4.8 0 1 0-9.6 0Z" fill="#000333" /><path d="M417.088 768.512m-23.296 0a23.296 23.296 0 1 0 46.592 0 23.296 23.296 0 1 0-46.592 0Z" fill="#DADADA" /><path d="M417.088 768.512m-19.52 0a19.52 19.52 0 1 0 39.04 0 19.52 19.52 0 1 0-39.04 0Z" fill="#FFFFFF" /><path d="M399.68 260.864h64v6.4h-64z" fill="#000333" /><path d="M336.832 453.504c-3.008 3.008-7.936 3.008-10.944 0s-3.008-7.936 0-10.944l72.064-72.768a7.744 7.744 0 0 1 10.944 0 7.744 7.744 0 0 1 0 10.944L336.832 453.504zM376.64 459.968a7.872 7.872 0 0 1-11.008 0 7.808 7.808 0 0 1 0.064-11.008l23.232-23.36a7.872 7.872 0 0 1 11.008 0 7.872 7.872 0 0 1 0 11.008l-23.296 23.36zM900.032 403.072h-201.344a58.24 58.24 0 0 0-57.984 57.984v8.448c0 1.6-1.472 45.696-33.6 51.264 0 0 36.736 7.744 61.056-3.264a56.128 56.128 0 0 0 30.592 10.048h201.344a58.24 58.24 0 0 0 57.984-57.984v-8.448a58.24 58.24 0 0 0-58.048-58.048z" fill="#FFFFFF" /><path d="M938.88 239.936h-254.272a49.28 49.28 0 0 0-49.152 49.152v7.168c0 1.344-1.28 38.656-28.416 43.392 0 0 31.104 6.528 51.712-2.752a47.36 47.36 0 0 0 25.856 8.512h254.272a49.28 49.28 0 0 0 49.088-49.088v-7.296a49.28 49.28 0 0 0-49.088-49.088z" fill="#00A4FF" /></svg>