<?xml version="1.0" standalone="no"?><!DOCTYPE svg PUBLIC "-//W3C//DTD SVG 1.1//EN" "http://www.w3.org/Graphics/SVG/1.1/DTD/svg11.dtd"><svg class="icon" width="32px" height="32.00px" viewBox="0 0 1024 1024" version="1.1" xmlns="http://www.w3.org/2000/svg"><path d="M516.189091 889.483636a300.683636 300.683636 0 1 1 300.683636-300.683636 301.149091 301.149091 0 0 1-300.683636 300.683636z m0-555.287272a254.138182 254.138182 0 1 0 254.138182 254.138181 254.603636 254.603636 0 0 0-254.138182-254.138181z" fill="#1B37A8" /><path d="M274.618182 360.261818l-60.974546-60.509091a23.272727 23.272727 0 0 1-6.981818-16.290909v-125.672727a23.272727 23.272727 0 0 1 23.272727-23.272727h564.13091a23.272727 23.272727 0 0 1 23.272727 23.272727V293.236364a23.272727 23.272727 0 0 1-9.309091 18.618181L744.727273 358.865455l-27.927273-37.236364 53.061818-40.029091V181.061818H253.207273v93.090909L307.2 325.818182z" fill="#1B37A8" /><path d="M388.189091 157.789091h46.545454v85.178182h-46.545454zM597.643636 157.789091h46.545455v85.178182h-46.545455z" fill="#1B37A8" /><path d="M601.367273 732.625455a23.738182 23.738182 0 0 1-11.170909-2.792728L512 686.08l-81.454545 41.425455a23.738182 23.738182 0 0 1-24.669091 0 23.272727 23.272727 0 0 1-8.843637-22.807273l16.756364-89.832727-67.025455-67.025455a23.272727 23.272727 0 0 1 13.498182-39.563636l90.763637-11.636364 41.890909-81.454545a21.410909 21.410909 0 0 1 19.083636-13.032728 23.272727 23.272727 0 0 1 20.48 13.498182l39.098182 82.850909 90.298182 14.429091a23.272727 23.272727 0 0 1 12.101818 40.029091l-66.56 62.836364 13.963636 90.298181a23.272727 23.272727 0 0 1-22.807273 26.996364z m-93.090909-96.349091a23.738182 23.738182 0 0 1 11.170909 2.792727l49.803636 26.996364-8.843636-55.854546a23.272727 23.272727 0 0 1 6.981818-20.48l40.96-39.098182-55.854546-8.843636a23.272727 23.272727 0 0 1-17.221818-13.032727l-23.272727-50.734546-25.6 50.269091a23.272727 23.272727 0 0 1-17.687273 12.567273l-56.32 7.447273 40.029091 40.02909a23.272727 23.272727 0 0 1 6.516364 20.48l-10.24 55.854546 50.269091-25.6a23.272727 23.272727 0 0 1 13.032727-2.327273z" fill="#FFB718" /></svg>