<?xml version="1.0" standalone="no"?><!DOCTYPE svg PUBLIC "-//W3C//DTD SVG 1.1//EN" "http://www.w3.org/Graphics/SVG/1.1/DTD/svg11.dtd"><svg class="icon" width="32px" height="32.00px" viewBox="0 0 1024 1024" version="1.1" xmlns="http://www.w3.org/2000/svg"><path d="M512 445.866667m-426.666667 0a426.666667 426.666667 0 1 0 853.333334 0 426.666667 426.666667 0 1 0-853.333334 0Z" fill="#FFE500" /><path d="M512 19.2c-234.666667 0-426.666667 192-426.666667 426.666667s192 426.666667 426.666667 426.666666 426.666667-192 426.666667-426.666666-192-426.666667-426.666667-426.666667z m0 789.333333c-215.466667 0-388.266667-174.933333-388.266667-388.266666C123.733333 204.8 296.533333 29.866667 512 29.866667s388.266667 174.933333 388.266667 388.266666c0 217.6-172.8 390.4-388.266667 390.4z" fill="#EBCB00" /><path d="M384 104.533333a128 32 0 1 0 256 0 128 32 0 1 0-256 0Z" fill="#FFF48C" /><path d="M170.666667 972.8a341.333333 32 0 1 0 682.666666 0 341.333333 32 0 1 0-682.666666 0Z" fill="#45413C" /><path d="M320 413.866667m-74.666667 0a74.666667 74.666667 0 1 0 149.333334 0 74.666667 74.666667 0 1 0-149.333334 0Z" fill="#FFFFFF" /><path d="M704 413.866667m-74.666667 0a74.666667 74.666667 0 1 0 149.333334 0 74.666667 74.666667 0 1 0-149.333334 0Z" fill="#FFFFFF" /><path d="M725.333333 552.533333a53.333333 32 0 1 0 106.666667 0 53.333333 32 0 1 0-106.666667 0Z" fill="#FFAA54" /><path d="M213.333333 552.533333a53.333333 32 0 1 0 106.666667 0 53.333333 32 0 1 0-106.666667 0Z" fill="#FFAA54" /><path d="M320 413.866667m-21.333333 0a21.333333 21.333333 0 1 0 42.666666 0 21.333333 21.333333 0 1 0-42.666666 0Z" fill="#45413C" /><path d="M704 413.866667m-21.333333 0a21.333333 21.333333 0 1 0 42.666666 0 21.333333 21.333333 0 1 0-42.666666 0Z" fill="#45413C" /></svg>